<svg width="512" height="512" viewBox="0 0 512 512" fill="none" xmlns="http://www.w3.org/2000/svg">
<g clip-path="url(#clip0_476_2)">
<rect width="512" height="512" rx="1" fill="white"/>
<path d="M353 192.242C353 186.72 357.477 182.242 363 182.242H443C448.523 182.242 453 186.72 453 192.242V463.808C453 469.331 448.523 473.808 443 473.808H363C357.477 473.808 353 469.331 353 463.808V320.699V192.242Z" fill="#378AFB"/>
<path d="M78.6762 111.36C76.0138 106.958 76.8361 101.02 80.5857 97.571L143.719 39.5048C147.593 35.9409 153.286 36.2285 156.737 40.1624L352.371 263.186C352.789 263.663 353.164 264.183 353.491 264.739L433.005 400.271C435.584 404.668 434.735 410.528 431.024 413.941L367.861 472.036C363.962 475.622 358.227 475.305 354.787 471.313L159.55 244.811C159.184 244.386 158.852 243.928 158.558 243.441L78.6762 111.36Z" fill="#378AFB"/>
<path d="M59 47.5561C59 42.0332 63.4772 37.5561 69 37.5561H149C154.523 37.5561 159 42.0332 159 47.5561V248.009V463.808C159 469.331 154.523 473.808 149 473.808H69C63.4772 473.808 59 469.331 59 463.808V47.5561Z" fill="#378AFB"/>
<mask id="mask0_476_2" style="mask-type:alpha" maskUnits="userSpaceOnUse" x="59" y="37" width="394" height="438">
<path d="M353 214.165C353 208.642 357.477 204.165 363 204.165H443C448.523 204.165 453 208.642 453 214.165V463.808C453 469.331 448.523 473.808 443 473.808H363C357.477 473.808 353 469.331 353 463.808V332.211V214.165Z" fill="#378AFB"/>
<path d="M78.6762 111.36C76.0138 106.958 76.8361 101.02 80.5857 97.571L143.719 39.5048C147.593 35.9409 153.286 36.2285 156.737 40.1624L352.371 263.186C352.789 263.663 353.164 264.183 353.491 264.739L433.005 400.271C435.584 404.668 434.735 410.528 431.024 413.941L367.861 472.036C363.962 475.622 358.227 475.305 354.787 471.313L159.55 244.811C159.184 244.386 158.852 243.928 158.558 243.441L78.6762 111.36Z" fill="#378AFB"/>
<path d="M59 47.5561C59 42.0332 63.4772 37.5561 69 37.5561H149C154.523 37.5561 159 42.0332 159 47.5561V248.009V463.808C159 469.331 154.523 473.808 149 473.808H69C63.4772 473.808 59 469.331 59 463.808V47.5561Z" fill="#378AFB"/>
</mask>
<g mask="url(#mask0_476_2)">
<path d="M58 37.5561L455 473.808H58V37.5561Z" fill="#2C6FCB"/>
</g>
<path d="M492.227 100.213C520.82 157.215 438.014 272.973 307.273 358.765C176.532 444.556 47.3663 467.894 18.7729 410.891C-9.82048 353.889 72.9863 238.131 203.727 152.339C334.468 66.5477 463.634 43.2098 492.227 100.213ZM54.282 387.59C78.5863 436.043 188.377 416.206 299.507 343.283C410.637 270.36 481.022 171.966 456.718 123.513C432.414 75.0611 322.623 94.8984 211.493 167.821C100.363 240.744 29.9776 339.138 54.282 387.59Z" fill="#87BBA2"/>
<mask id="mask1_476_2" style="mask-type:alpha" maskUnits="userSpaceOnUse" x="13" y="69" width="485" height="374">
<path d="M492.227 100.213C520.82 157.215 438.014 272.973 307.273 358.765C176.532 444.556 47.3663 467.894 18.7729 410.891C-9.82048 353.889 72.9863 238.131 203.727 152.339C334.468 66.5477 463.634 43.2098 492.227 100.213ZM54.282 387.59C78.5863 436.043 188.377 416.206 299.507 343.283C410.637 270.36 481.022 171.966 456.718 123.513C432.414 75.0611 322.623 94.8984 211.493 167.821C100.363 240.744 29.9776 339.138 54.282 387.59Z" fill="#87BBA2"/>
</mask>
<g mask="url(#mask1_476_2)">
<ellipse cx="259.408" cy="106.215" rx="259.408" ry="106.215" transform="matrix(0.833982 -0.551791 0.569286 0.82214 -31.2656 327.278)" fill="#52816B"/>
</g>
<path d="M353 173.747C353 168.224 357.477 163.747 363 163.747H443C448.523 163.747 453 168.224 453 173.747V463.822C453 469.345 448.523 473.822 443 473.822H363C357.477 473.822 353 469.345 353 463.822V310.994V173.747Z" fill="#378AFB"/>
<path d="M177.391 240.379C174.761 235.979 175.594 230.071 179.328 226.637L242.733 168.321C246.509 164.847 252.034 165.021 255.519 168.723L386.311 307.659C386.969 308.358 387.529 309.159 387.974 310.038L433.725 400.466C435.927 404.819 434.965 410.317 431.433 413.565L367.859 472.037C363.961 475.623 358.227 475.307 354.786 471.316L227.068 323.203C226.69 322.765 226.348 322.291 226.047 321.786L177.391 240.379Z" fill="#378AFB"/>
<mask id="mask2_476_2" style="mask-type:alpha" maskUnits="userSpaceOnUse" x="59" y="37" width="394" height="438">
<path d="M353 47.5561C353 42.0333 357.477 37.5561 363 37.5561H443C448.523 37.5561 453 42.0332 453 47.5561V463.808C453 469.331 448.523 473.808 443 473.808H363C357.477 473.808 353 469.331 353 463.808V244.721V47.5561Z" fill="#378AFB"/>
<path d="M174.61 236.736C171.975 232.336 172.806 226.424 176.543 222.987L239.932 164.685C243.713 161.207 249.245 161.386 252.729 165.098L385.358 306.407C386.006 307.097 386.558 307.886 386.998 308.751L433.696 400.457C435.913 404.812 434.956 410.325 431.416 413.581L367.857 472.039C363.96 475.624 358.228 475.309 354.786 471.32L225.567 321.557C225.19 321.12 224.849 320.647 224.547 320.144L174.61 236.736Z" fill="#378AFB"/>
<path d="M59 333.937C59 328.414 63.4772 323.937 69 323.937H149C154.523 323.937 159 328.414 159 333.937V393.08V457.265C159 462.788 154.523 467.265 149 467.265H69C63.4772 467.265 59 462.788 59 457.265V333.937Z" fill="#378AFB"/>
</mask>
<g mask="url(#mask2_476_2)">
<path d="M58 37.5561L455 473.808H58V37.5561Z" fill="#2C6FCB"/>
</g>
<circle cx="403.198" cy="95.5475" r="60.1998" fill="#131624"/>
<circle cx="418.009" cy="77.8698" r="21.4999" fill="white"/>
</g>
<defs>
<clipPath id="clip0_476_2">
<rect width="512" height="512" rx="1" fill="white"/>
</clipPath>
</defs>
</svg>
